<?xml version="1.0" encoding="utf-8"?>
<!-- Generator: Adobe Illustrator 27.7.0, SVG Export Plug-In . SVG Version: 6.00 Build 0)  -->
<svg version="1.1" id="Calque_1" xmlns="http://www.w3.org/2000/svg" xmlns:xlink="http://www.w3.org/1999/xlink" x="0px" y="0px"
	viewBox="0 0 400 400" style="enable-background:new 0 0 400 400;" fill="white" xml:space="preserve">
	<g>
		<path d="M223.7,38.6c0.9-11.9-11.9-12.8-11.3-20.1c0.2-2.5,2.1-4,4.5-3.8c2.4,0.2,4.2,1.6,5.9,3.2l0.6-8.2C221.1,8,219,7.2,216.2,7
		c-7.2-0.6-11.6,5-12.1,11.7c-0.5,6.2,2.3,9.5,6.9,13.2c1.3,1.1,3.6,2.7,4.2,4.3c0.3,0.7,0.3,1.4,0.3,2.2c-0.2,2.9-2.5,4.6-5.4,4.3
		c-2.4-0.2-4.3-1.4-6.1-2.8l-0.6,8.1c2.1,1.6,4.6,2.5,7.2,2.7C218.3,51.4,223.2,45.9,223.7,38.6z" />
		<path d="M240.4,55.6c2.2,0.5,3.9,0.6,6,0.1l2.1-8.6c-2.1,1.2-4,1.1-5.4,0.8c-2.2-0.5-3.5-1.8-4.2-3.1c-2.1-4-0.5-10.6-0.3-11.6
		c1.3-5.4,3.5-9.4,6.3-11.1c1.2-0.7,2.8-1.3,5-0.8c1.3,0.3,2.9,1.1,4.1,2.9l2.1-8.5c-1.4-1.1-3-2-4.9-2.4c-2.8-0.7-6.7-0.8-11,1.8
		c-6.8,4.2-9.3,12.1-10.3,16.3c-2.1,8.8-0.7,14.6,1.5,18.2C233.6,53,236.4,54.6,240.4,55.6z" />
		<path d="M257.4,61l7.9-18l-1.1,21l8.2,3.6l1-20.8c4.8-0.7,8-3.1,10-7.5c1.6-3.6,1.8-8.1-0.5-11.6c-1.7-2.7-4.8-4.4-7.7-5.6
		l-8.4-3.7l-17.2,39.2L257.4,61z M271.9,28l1.5,0.6c3.4,1.5,3.9,4.3,2.5,7.5c-1.4,3.2-4,4.7-7.4,3.3c-0.4-0.2-0.9-0.4-1.3-0.6
		L271.9,28z" />
		<path d="M285.8,77.5c3.6,2.5,8.5,2.9,12.6,1.5c5.3-1.9,9.2-6.4,12.4-10.9c3.1-4.4,6.2-9.8,6.1-15.4c-0.1-4.4-2.1-8.7-5.7-11.3
		c-3.6-2.5-8.5-3-12.6-1.5c-5.3,1.9-9.2,6.5-12.4,11c-3.1,4.4-6.2,9.8-6.1,15.3C280.2,70.5,282.2,74.9,285.8,77.5z M293.6,55.8
		c2.2-3.2,8.5-11.3,13-8.1c4.6,3.2-0.9,11.8-3.2,15c-2.2,3.2-8.5,11.3-13,8.1C285.9,67.6,291.4,59,293.6,55.8z" />
		<polygon points="313.3,100.8 319,95.1 312.7,88.9 337.3,64.3 331.3,58.3 301.1,88.6 	" />
		<polygon points="325.3,116.5 331.7,111.6 326.3,104.6 353.8,83.4 348.7,76.6 314.8,102.7 	" />
		<path d="M336.9,137.8c5,11.9,15.6,12.2,26.2,7.7c7-3,14.5-8.5,14.7-16.9c0.1-3.2-0.8-5.7-2-8.5l-2.8-6.6l-39.4,16.7L336.9,137.8z
		 M369.5,124.3c0.6,1.6,0.9,2.8,0.3,4.5c-1.3,4.2-6,7.3-9.9,8.9c-4.9,2.1-13.1,3.7-15.6-2.5l-0.1-0.2L369.5,124.3z" />
		<path d="M365.5,152.1c-5.3,1-11.2,2.8-15,6.9c-3,3.2-4.6,7.8-3.8,12.1c0.9,4.3,4.1,8,8.1,9.8c5.2,2.3,11.1,1.8,16.5,0.7
		c5.3-1,11.3-2.8,15.1-6.9c3-3.2,4.6-7.8,3.7-12.1c-0.8-4.3-4-8-8-9.8C376.9,150.5,370.9,151.1,365.5,152.1z M382.5,164.1
		c1.1,5.5-8.8,7.9-12.7,8.6c-3.8,0.8-13.9,2.3-15-3.2c-1.1-5.5,8.8-7.9,12.7-8.6C371.3,160.1,381.4,158.6,382.5,164.1z" />
		<path d="M374.5,198.6l18.9-2.6l0.4-8.6l-43.2,6.6l-0.4,7.4l16.6,4.8c4.4,1.3,8.9,2.2,13.5,2.8c-4.2,0-8.5,0-12.7,0.9
		c-6,1.2-12,2.2-17.9,3.3l-0.4,7.4l42.3,10.9l0.4-8.8l-17-3.9c-4.1-1-8.2-1.6-12.4-1.8c2.7-0.1,5.4-0.4,8.1-0.8l21.7-3.3l0.3-6.7
		l-19-4.9c-3.4-0.9-6.8-1.5-10.2-2.1C367.3,199.3,371,199.1,374.5,198.6z" />
		<path d="M345.4,238.4l20,6c1.5,0.5,3.2,0.8,4.8,1l-27.7,2.7l-2.3,7.6l41,12.2l2.5-8.2l-19.2-5.7c-1.8-0.6-3.8-0.9-5.7-1l27.8-2.7
		l2.3-7.7l-41-12.2L345.4,238.4z" />
		<path d="M47.2,125c27.5-56,83.2-92.4,145.4-95l3.2-0.1l-0.3-6.4l-3.2,0.1C127.9,26.3,70,64.1,41.5,122.2l-1.4,2.9l5.8,2.8L47.2,125
		z" />
		<path d="M353.4,273.7c-27.3,56.7-83.2,93.6-145.9,96.3l-3.2,0.1l0.3,6.4l3.2-0.1c65.1-2.8,123.1-41.1,151.4-99.9l1.4-2.9l-5.8-2.8
		L353.4,273.7z" />
		<path d="M176.3,361.4c-0.9,11.9,11.9,12.8,11.3,20.1c-0.2,2.5-2.1,4-4.5,3.8c-2.4-0.2-4.2-1.6-5.9-3.2l-0.6,8.2
		c2.4,1.6,4.4,2.4,7.3,2.6c7.2,0.6,11.6-5,12.1-11.7c0.5-6.2-2.3-9.5-6.9-13.2c-1.3-1.1-3.6-2.7-4.2-4.3c-0.3-0.7-0.3-1.4-0.3-2.2
		c0.2-2.9,2.5-4.6,5.4-4.3c2.4,0.2,4.3,1.4,6.1,2.8l0.6-8.1c-2.1-1.6-4.6-2.5-7.2-2.7C181.7,348.6,176.8,354.1,176.3,361.4z" />
		<path d="M159.6,344.4c-2.2-0.5-3.9-0.6-6-0.1l-2.1,8.6c2.1-1.2,4-1.1,5.4-0.8c2.2,0.5,3.5,1.8,4.2,3.1c2.1,4,0.5,10.6,0.3,11.6
		c-1.3,5.4-3.5,9.4-6.3,11.1c-1.2,0.7-2.8,1.3-5,0.8c-1.3-0.3-2.9-1.1-4.1-2.9l-2.1,8.5c1.4,1.1,3,2,4.9,2.4c2.8,0.7,6.7,0.8,11-1.8
		c6.8-4.2,9.3-12.1,10.3-16.3c2.1-8.8,0.7-14.6-1.5-18.2C166.4,347,163.6,345.4,159.6,344.4z" />
		<path d="M142.6,339l-7.9,18l1.1-21l-8.2-3.6l-1,20.8c-4.8,0.7-8,3.1-10,7.5c-1.6,3.6-1.8,8.1,0.5,11.6c1.7,2.7,4.8,4.4,7.7,5.6
		l8.4,3.7l17.2-39.2L142.6,339z M128.1,372l-1.5-0.6c-3.4-1.5-3.9-4.3-2.5-7.5c1.4-3.2,4-4.7,7.4-3.3c0.4,0.2,0.9,0.4,1.3,0.6
		L128.1,372z" />
		<path d="M114.2,322.5c-3.6-2.5-8.5-2.9-12.6-1.5c-5.3,1.9-9.2,6.4-12.4,10.9c-3.1,4.4-6.2,9.8-6.1,15.4c0.1,4.4,2.1,8.7,5.7,11.3
		c3.6,2.5,8.5,3,12.6,1.5c5.3-1.9,9.2-6.5,12.4-11c3.1-4.4,6.2-9.8,6.1-15.3C119.8,329.5,117.8,325.1,114.2,322.5z M106.4,344.2
		c-2.2,3.2-8.5,11.3-13,8.1c-4.6-3.2,0.9-11.8,3.2-15c2.2-3.2,8.5-11.3,13-8.1C114.1,332.4,108.6,341,106.4,344.2z" />
		<polygon points="86.7,299.2 81,304.9 87.3,311.1 62.7,335.7 68.7,341.7 98.9,311.4 	" />
		<polygon points="74.7,283.5 68.3,288.4 73.7,295.4 46.2,316.6 51.3,323.4 85.2,297.3 	" />
		<path d="M63.1,262.2c-5-11.9-15.6-12.2-26.2-7.7c-7,3-14.5,8.5-14.7,16.9c-0.1,3.2,0.8,5.7,2,8.5l2.8,6.6l39.4-16.7L63.1,262.2z
		 M30.5,275.7c-0.6-1.6-0.9-2.8-0.3-4.5c1.3-4.2,6-7.3,9.9-8.9c4.9-2.1,13.1-3.7,15.6,2.5l0.1,0.2L30.5,275.7z" />
		<path d="M34.5,247.9c5.3-1,11.2-2.8,15-6.9c3-3.2,4.6-7.8,3.8-12.1c-0.9-4.3-4.1-8-8.1-9.8c-5.2-2.3-11.1-1.8-16.5-0.7
		c-5.3,1-11.3,2.8-15.1,6.9c-3,3.2-4.6,7.8-3.7,12.1c0.8,4.3,4,8,8,9.8C23.1,249.5,29.1,248.9,34.5,247.9z M17.5,235.9
		c-1.1-5.5,8.8-7.9,12.7-8.6c3.8-0.8,13.9-2.3,15,3.2c1.1,5.5-8.8,7.9-12.7,8.6C28.7,239.9,18.6,241.4,17.5,235.9z" />
		<path d="M49.6,198.6L33,193.8c-4.4-1.3-8.9-2.2-13.5-2.8c4.2,0,8.5,0,12.7-0.9c6-1.2,12-2.2,17.9-3.3l0.4-7.4L8.2,168.5l-0.4,8.8
		l17,3.9c4.1,1,8.2,1.6,12.4,1.8c-2.7,0.1-5.4,0.4-8.1,0.8l-21.7,3.3L7,193.8l19,4.9c3.4,0.9,6.8,1.5,10.2,2.1
		c-3.6-0.2-7.3,0.1-10.8,0.6l-18.9,2.6l-0.4,8.6l43.2-6.6L49.6,198.6z" />
		<path d="M54.6,161.6l-20-6c-1.5-0.5-3.2-0.8-4.8-1l27.7-2.7l2.3-7.6l-41-12.2l-2.5,8.2l19.2,5.7c1.8,0.6,3.8,0.9,5.7,1l-27.8,2.7
		l-2.3,7.7l41,12.2L54.6,161.6z" />
		<animateTransform attributeType="xml" attributeName="transform" type="rotate" from="0 200 200" to="360 200 200" dur="15s" additive="sum" repeatCount="indefinite" />

	</g>
	<polygon points="262.6,188.9 205.7,247.6 205.7,133.9 195,133.9 195,247.6 138,188.9 130.4,196.4 200.3,268.4 270.3,196.4 " />
</svg>