<?xml version="1.0" encoding="utf-8"?>
<!-- Generator: Adobe Illustrator 27.7.0, SVG Export Plug-In . SVG Version: 6.00 Build 0)  -->
<svg version="1.1" id="Calque_1" xmlns="http://www.w3.org/2000/svg" xmlns:xlink="http://www.w3.org/1999/xlink" x="0px" y="0px"
	 viewBox="0 0 3453.2 637.9" style="enable-background:new 0 0 3453.2 637.9;" xml:space="preserve">
<style type="text/css">
	.st0{clip-path:url(#SVGID_00000140703270546200913590000001060813811129371322_);}
	.st1{fill:#EA9268;}
	.st2{fill:#6BB5A5;}
	.st3{fill:#F0CF76;}
	.st4{fill:#C2AC89;}
</style>
<g>
	<defs>
		<rect id="SVGID_1_" width="3453.2" height="637.9"/>
	</defs>
	<clipPath id="SVGID_00000107569090818526957960000012104900611957833609_">
		<use xlink:href="#SVGID_1_"  style="overflow:visible;"/>
	</clipPath>
	<g style="clip-path:url(#SVGID_00000107569090818526957960000012104900611957833609_);">
		<g>
			<path class="st1" d="M3321.1,637.9c-77.3,0-150-30.1-204.7-84.8s-84.8-127.4-84.8-204.7c0-77.3,30.1-150,84.8-204.7
				s127.4-84.8,204.7-84.8v40c-66.7,0-129.3,26-176.5,73.1c-47.1,47.1-73.1,109.8-73.1,176.5c0,66.7,26,129.3,73.1,176.5
				c47.1,47.1,109.8,73.1,176.5,73.1c66.6,0,129.5-26.3,177-74.1c47.5-47.7,73.7-110.8,73.7-177.5c0-169.3-138.2-307-308.1-307
				L0,40.8c-61,0-118.3-23.7-161.4-66.8s-66.8-100.4-66.8-161.4h40c0,50.3,19.6,97.6,55.1,133.1C-97.6-18.8-50.3,0.8,0,0.8
				l3263.7-1.4c192,0,348.1,155.7,348.1,347c0,39.1-7.7,77.1-23,113c-14.7,34.7-35.7,65.8-62.4,92.7c-26.8,26.9-57.8,48-92.4,62.7
				C3398.2,630.1,3360.1,637.9,3321.1,637.9z"/>
		</g>
		<g>
			<path class="st2" d="M3321.1,597.8c-66.6,0-129.3-25.9-176.4-73.1s-73.1-109.7-73.1-176.4c0-66.6,25.9-129.3,73.1-176.4
				s109.7-73.1,176.4-73.1v40c-115.5,0-209.4,93.9-209.4,209.4c0,115.5,93.9,209.4,209.4,209.4c55.9,0,108.7-22.2,148.7-62.4
				c40-40.2,62-93.2,62-149.2c0-71.5-27.9-138.8-78.6-189.3c-50.6-50.5-118-78.3-189.6-78.3L0,80.8c-71.7,0-139.1-27.9-189.7-78.5
				c-50.6-50.6-78.5-118-78.5-189.7h40c0,61,23.7,118.3,66.8,161.4C-118.3,17.1-61,40.8,0,40.8l3263.7-2.2c82.3,0,159.7,32,217.9,90
				c58.2,58.1,90.3,135.4,90.3,217.6c0,66.7-26.2,129.7-73.7,177.4C3450.6,571.4,3387.7,597.8,3321.1,597.8z"/>
		</g>
		<g>
			<path class="st3" d="M3320.8,558c-115.6,0-209.6-94-209.6-209.6s94-209.6,209.6-209.6c17.1,0,33.9,2,50.1,5.9
				c-32.6-17.3-69.1-26.5-107.1-26.5L0,120.4c-82.3,0-159.6-32-217.7-90.1c-58.1-58.1-90.1-135.4-90.1-217.6h40
				c0,71.6,27.8,138.8,78.4,189.3C-138.8,52.5-71.6,80.4,0,80.4l3263.7-2.2c71.7,0,139.1,27.9,189.7,78.5
				c50.6,50.6,78.5,118,78.5,189.7c0,56-22.1,109-62.1,149.2C3429.7,535.8,3376.7,558,3320.8,558z M3320.8,178.7
				c-93.5,0-169.6,76.1-169.6,169.6c0,93.5,76.1,169.6,169.6,169.6c45.3,0,88.1-18,120.7-50.7c32.1-32.2,49.9-74.3,50.5-118.9h-1.7
				c0-45.7-17.5-88.3-49.3-120.2C3409,196.3,3366.4,178.7,3320.8,178.7z"/>
		</g>
		<g>
			<path class="st4" d="M3319.5,518.7c-94.1,0-170.7-76.6-170.7-170.7s76.6-170.7,170.7-170.7c11.3,0,22.4,1,33.2,3.1
				c-27-14.5-57.4-22.2-88.9-22.2L0,159.6c-46.9,0-92.3-9.2-135.1-27.2c-41.3-17.5-78.4-42.5-110.3-74.3s-56.8-68.9-74.3-110.3
				C-337.8-95-347-140.5-347-187.3h40c0,82.1,31.9,159.1,89.8,217.1s135,89.8,217.1,89.8l3263.7-1.4c61,0,118.3,23.7,161.4,66.8
				c39.3,39.3,62.5,90.4,66.2,145.4c0.5,5.1,0.7,10.3,0.7,15.5h-0.2c0,0.1,0,0.3,0,0.4c0,45.6-18.1,88.8-50.8,121.6
				C3408.2,500.6,3365.1,518.7,3319.5,518.7z M3319.5,217.3c-72.1,0-130.7,58.6-130.7,130.7s58.6,130.7,130.7,130.7
				c34.9,0,68-13.9,93.3-39.1c25.2-25.2,39.1-58.4,39.1-93.3c0-4.2-0.1-8.4-0.4-12.6c-2.9-30-16.2-57.7-38.3-79
				C3388.2,230.5,3354.9,217.3,3319.5,217.3z"/>
		</g>
	</g>
</g>
</svg>
